<?xml version="1.0" encoding="utf-8"?>
<!-- Generator: Adobe Illustrator 19.2.1, SVG Export Plug-In . SVG Version: 6.00 Build 0)  -->
<svg version="1.1" id="Calque_1" xmlns="http://www.w3.org/2000/svg" xmlns:xlink="http://www.w3.org/1999/xlink" x="0px" y="0px"
	 viewBox="0 0 283.5 283.5" style="enable-background:new 0 0 283.5 283.5;" xml:space="preserve">
<style type="text/css">
	.st0{fill:#A9B6DB;}
	.st1{fill:none;}
	.st2{fill:#FFFFFF;}
	.st3{fill:#F7ACB8;}
	.st4{fill:#C6093B;}
	.st5{fill:#FFFBFA;}
</style>
<path class="st0" d="M200.3,153c-7.6,2.3-8.5-2.4-19.7,3.7c10.7-6.2,12.4-17.5,16.2-23.7c5-8.1,4.9-8.1,0.4-1.9
	c-3.7,5.1-8.9,1.2-18.3,16.5c-0.1,0.2-5.1,6.5,0.2-0.8c11.1-15.2,3.2-16.2,6.9-27.2c2.4-7.3,0.5-3.2-0.2-1.6
	c-0.1,0.3-0.3,0.7-0.5,1.2c-5.6,14.8-8.3,8.8-11.4,16.4c-0.1,0.3,0.5-2.3,0.9-2.9c10.4-17.1,0.2-27.8,2.3-38.4
	c0.6-3,0.1-2.7-0.1-1.4c-1.3,7.2-4.3,12.2-7,25c-0.8,3.8-1.4,6.2-1.3,5.5c0.3-1.4,0.6-2.8,0.9-4.2c2.7-15.2-0.9-25.9-0.6-31.6
	c0.2-3.5-0.2-2.3-0.3-0.8c-0.3,4.3-6.3,13.3-7.1,23c-0.2,2.9-0.5,0.8-0.2-0.6c3.7-21.7-2.6-34.6-2.3-44.8c0.1-2.6-0.5-2.2-0.4-0.9
	c0.7,12.2-6.8,26.9-7.2,38.1c-0.1,3.1-0.6,0.4-0.4-2.1c0.6-10.7-8.1-31.6-11-47.3c0-0.1,0-0.1,0-0.2l0,0l0,0c-0.4-1.7-1.6-5-2.4-0.2
	c-2.8,15.7-11.7,36.8-11,47.5c0.1,2.4-0.3,5.1-0.4,2.1c-0.4-11.2-7.8-25.9-7.2-38.1c0.1-1.2-0.5-1.7-0.4,0.9
	c0.3,10.2-6,23.1-2.3,44.8c0.2,1.3,0,3.4-0.2,0.6c-0.8-9.7-6.8-18.7-7.1-23c-0.1-1.5-0.5-2.7-0.3,0.8c0.4,5.7-3.2,16.4-0.6,31.6
	c0.2,1.3,0.5,2.7,0.9,4.2c0.2,0.7-0.5-1.7-1.3-5.5c-2.7-12.8-5.7-17.7-7-25c-0.2-1.3-0.7-1.6-0.1,1.4c2.1,10.6-8.1,21.3,2.3,38.4
	c0.4,0.6,1,3.1,0.9,2.9c-3.2-7.6-5.8-1.6-11.4-16.4c-0.2-0.5-0.4-0.9-0.5-1.2c-0.7-1.6-2.6-5.7-0.2,1.6c3.7,11-4.2,12,6.9,27.2
	c5.3,7.3,0.3,1,0.2,0.8c-9.4-15.3-14.6-11.3-18.3-16.5c-4.4-6.2-4.6-6.2,0.4,1.9c3.9,6.2,5.5,17.4,16.2,23.7
	c-11.2-6.1-12.1-1.4-19.7-3.7c-4.6-1.3,0.9,0.9,1.4,1.2c8.2,4.6-0.4,8.2,23.6,10.5c1.1,0.1,7.5,1.3,0.7,0.5
	c-9.6-1.1-19.4,5.6-14.8,4.1c7.6-2.5,5.5,1.1,10.4,1.3c1.2,0-2.2,1.5,0.7,1.2c5.6-0.6-11.9,3.5-6.8,3.8c6.2,0.4,6.4,4.3,18,2.6
	c0,0-8.3,6.4-8.9,12.3c-0.3,3.2,8.9-2.7,8.9-2.7s-3.2,7.1,0.2,8c4.2,1.2,13.3-10.3,13.3-10.3s-4.6,13.4-2,14.4c5.4,2,7-5.6,7-5.6
	s1.2,7.3,4.6,6.5c3.9-1,5.2-12.5,5.2-12.5s1.4,11.7,5.3,12.6c3.4,0.8,4.6-6.5,4.6-6.5s1.5,7.6,7,5.6c2.6-1-2-14.4-2-14.4
	s9.1,11.5,13.3,10.3c3.4-1,0.2-8,0.2-8s9.2,5.8,8.9,2.7c-0.6-5.9-8.9-12.3-8.9-12.3c11.6,1.8,11.8-2.2,18-2.6
	c5.1-0.3-12.4-4.5-6.8-3.8c2.9,0.3-0.5-1.1,0.7-1.2c4.9-0.2,2.8-3.8,10.4-1.3c4.5,1.5-5.2-5.2-14.8-4.1c-6.8,0.8-0.3-0.4,0.7-0.5
	c23.9-2.4,15.3-5.9,23.6-10.5C199.5,153.9,204.9,151.6,200.3,153z"/>
<g>
	<path class="st0" d="M173,76.4c2.6-10.4,10.2-6.5,11.5-10.2c1.8-5.1-5.1-9.4-8.6-5.7c-4,4.2-2.1,12.8-3.2,16.2
		C172.4,77.3,172.7,77.4,173,76.4z"/>
	<path class="st0" d="M172.9,76.3c0,0,0.1-0.2,0.1-0.5c0.1-0.3,0.2-0.8,0.4-1.5c0.1-0.3,0.2-0.7,0.4-1.1c0.1-0.4,0.3-0.8,0.5-1.2
		c0.4-0.9,1-1.8,2-2.6c0.9-0.8,2.2-1.4,3.6-1.7c0.7-0.1,1.3-0.3,2-0.4c0.6-0.1,1.2-0.3,1.7-0.6c0.2-0.1,0.4-0.5,0.5-0.6
		c0.1-0.3,0.3-0.7,0.3-1s0.1-0.7,0-1l-0.1-0.5l-0.2-0.5c-0.4-1.4-1.7-2.4-2.9-2.9c-1.3-0.5-2.8-0.4-3.8,0.2c-1,0.6-1.8,1.8-2.3,2.9
		c-0.5,1.2-0.7,2.5-0.9,3.7s-0.3,2.4-0.4,3.6c-0.1,1.1-0.3,2.2-0.4,3.1c-0.1,0.9-0.3,1.7-0.5,2.4c-0.1,0.3-0.2,0.6-0.3,0.9
		c0,0.1,0,0.1,0,0.2l0,0h-0.1c0,0,0.1-0.1,0.1-0.2C172.8,76.5,172.9,76.3,172.9,76.3z M173,76.4c0,0,0,0.2-0.2,0.5
		c-0.1,0.1,0,0.2-0.2,0.3c-0.1,0-0.2,0-0.2-0.1s0-0.1,0-0.1c0-0.1,0-0.1,0-0.2c0.1-0.3,0.1-0.5,0.2-0.9c0.1-0.7,0.1-1.4,0-2.4
		c-0.1-0.9-0.2-2-0.3-3.1c-0.1-1.2-0.1-2.4,0.1-3.8c0.1-1.3,0.4-2.8,1.1-4.2c0.2-0.4,0.3-0.7,0.6-1.1c0.2-0.4,0.5-0.7,0.7-1l0.4-0.4
		c0.2-0.2,0.3-0.3,0.5-0.5c0.3-0.3,0.7-0.5,1.1-0.7c1.6-0.8,3.5-0.4,4.9,0.4c0.7,0.4,1.3,0.9,1.8,1.6c0.5,0.6,0.9,1.3,1.2,2
		s0.3,1.5,0.3,2.3c0,0.4-0.1,0.7-0.2,1.1c-0.2,0.4-0.3,0.8-0.6,1.1c-0.6,0.6-1.3,1-2,1.2c-0.7,0.3-1.3,0.4-1.9,0.6
		c-1.2,0.3-2.2,0.8-3.1,1.3c-0.9,0.5-1.6,1.2-2.2,1.9c-0.6,0.7-1,1.4-1.2,2c-0.3,0.6-0.4,1.1-0.5,1.4C173.1,76.2,173,76.4,173,76.4z
		"/>
</g>
<g>
	<path class="st0" d="M189.4,105.7c3.8-7.1,8.7-2.9,10.3-5.4c2.2-3.4-2-7.9-5.3-5.8c-3.7,2.3-3.9,9-5.3,11.3
		C188.8,106.2,189,106.4,189.4,105.7z"/>
	<path class="st0" d="M189.3,105.6c0,0,0.1-0.1,0.2-0.4c0.1-0.2,0.3-0.6,0.6-1c0.1-0.2,0.3-0.5,0.5-0.7c0.2-0.3,0.4-0.5,0.6-0.8
		c0.4-0.6,1.1-1.2,2-1.7s1.9-0.6,3-0.6c0.5,0,1,0.1,1.5,0.1s0.9,0.1,1.3-0.1c0.2,0,0.3-0.2,0.5-0.3c0.1-0.2,0.3-0.5,0.4-0.7
		c0.1-0.2,0.2-0.4,0.2-0.7l0.1-0.4c0-0.1,0-0.3,0-0.4c-0.1-1.1-0.8-2-1.6-2.6c-0.9-0.6-1.9-0.7-2.7-0.5s-1.6,1-2.1,1.7
		c-0.5,0.8-0.9,1.6-1.3,2.5c-0.4,0.9-0.7,1.7-1,2.5s-0.7,1.5-1,2.2s-0.6,1.2-0.8,1.7c-0.1,0.2-0.3,0.4-0.4,0.6v0.1l0,0
		c0,0,0-0.1-0.1-0.1l0.1-0.1C189.2,105.8,189.3,105.6,189.3,105.6z M189.4,105.7c0,0-0.1,0.1-0.2,0.4c-0.1,0.1-0.1,0.1-0.2,0.2
		c-0.1,0-0.2-0.1-0.2-0.1c0-0.1,0-0.1,0-0.1c0-0.1,0-0.1,0.1-0.2c0.1-0.2,0.2-0.4,0.3-0.6c0.2-0.5,0.3-1.1,0.4-1.8
		c0.1-0.7,0.2-1.5,0.3-2.4s0.4-1.8,0.7-2.8s0.8-2,1.6-3c0.2-0.2,0.4-0.5,0.6-0.7c0.2-0.2,0.5-0.5,0.7-0.6l0.3-0.2
		c0.2-0.2,0.3-0.2,0.5-0.3c0.3-0.2,0.6-0.3,1-0.3c1.4-0.3,2.8,0.4,3.7,1.3s1.4,2.1,1.5,3.3c0.1,0.6,0,1.2-0.2,1.8
		c-0.1,0.3-0.2,0.5-0.3,0.8c-0.2,0.3-0.4,0.6-0.7,0.8c-0.6,0.4-1.2,0.5-1.8,0.6s-1.1,0.1-1.5,0.1c-0.9,0-1.7,0.2-2.5,0.4
		c-0.7,0.2-1.4,0.5-2,0.9s-1,0.8-1.3,1.2c-0.3,0.4-0.5,0.7-0.7,1C189.5,105.6,189.4,105.7,189.4,105.7z"/>
</g>
<g>
	<path class="st0" d="M193.2,121.9c3-3.5,5.2-0.5,6.4-1.7c1.7-1.6-0.1-4.6-2.2-3.9c-2.3,0.8-3.3,4.5-4.4,5.6
		C192.9,122.1,193,122.2,193.2,121.9z"/>
	<path class="st0" d="M193.2,121.8c0,0,0.2-0.2,0.6-0.7c0.2-0.2,0.4-0.5,0.7-0.8s0.7-0.7,1.3-0.8c0.6-0.2,1.3-0.2,1.8,0
		c0.6,0.2,1.1,0.5,1.4,0.5c0.1,0,0.2,0,0.2,0c0.1-0.1,0.3-0.2,0.3-0.3c0.2-0.2,0.3-0.4,0.3-0.7c0.1-0.6-0.2-1.1-0.6-1.5
		c-0.4-0.3-0.9-0.4-1.3-0.4c-0.3,0-0.8,0.4-1.1,0.6c-0.3,0.3-0.7,0.7-1,1.1s-0.6,0.8-0.9,1.2C194.3,120.7,193.6,121.4,193.2,121.8
		c-0.1,0.1-0.2,0.2-0.3,0.3l0,0l0,0c0,0,0-0.1-0.1-0.1l0,0C193.1,121.9,193.2,121.8,193.2,121.8z M193.3,121.9c0,0,0,0.1-0.2,0.2
		c0,0,0,0.1-0.2,0.1c-0.1,0-0.1-0.1-0.1-0.1V122c0,0,0-0.1,0.1-0.1c0.1-0.1,0.1-0.2,0.2-0.3c0.1-0.2,0.2-0.6,0.3-1s0.2-0.9,0.3-1.3
		c0.1-0.5,0.4-1,0.7-1.5s0.7-1.1,1.3-1.5c0.2-0.1,0.3-0.2,0.5-0.3c0.2-0.1,0.4-0.2,0.5-0.3l0.2-0.1c0.2-0.1,0.2-0.1,0.4-0.1
		c0.2-0.1,0.5-0.1,0.7,0c1,0,1.7,0.7,2,1.4c0.4,0.7,0.5,1.4,0.4,2.2c0,0.4-0.2,0.7-0.3,1.1c-0.1,0.2-0.2,0.3-0.3,0.4
		c-0.2,0.2-0.3,0.3-0.5,0.4c-0.4,0.2-0.8,0.2-1.2,0.2c-0.3,0-0.6,0-0.9-0.1c-0.5-0.1-0.9-0.1-1.3-0.1c-0.4,0-0.8,0-1.2,0.1
		s-0.7,0.2-0.9,0.4S193.4,121.8,193.3,121.9C193.4,121.9,193.3,121.9,193.3,121.9z"/>
</g>
<g>
	<path class="st0" d="M139.8,42.8c0.7-3.2,5-9.1,4.4-12.4c-0.8-4.6-7.7-5-8.8-0.8c-1.3,4.8,3.7,10.5,4.2,13.5
		C139.7,43.7,139.6,43.6,139.8,42.8z"/>
	<path class="st0" d="M139.7,42.7c0,0,0-0.2,0.1-0.4c0.1-0.3,0.2-0.7,0.4-1.3c0.4-1.1,0.8-2.6,1.5-4.4c0.3-0.9,0.8-1.8,1.2-2.8
		s0.9-2,0.9-3c0-1.1-0.4-2.3-1.4-2.9c-1-0.7-2.3-0.9-3.4-0.6c-0.6,0.1-1.1,0.4-1.5,0.7c-0.2,0.2-0.4,0.3-0.6,0.5l-0.2,0.3l-0.2,0.3
		c-0.1,0.2-0.2,0.5-0.3,0.7v0.1l0,0c0,0.1,0-0.1,0-0.1l0,0v0.1v0.2l-0.1,0.5c0,0.3,0,0.5,0,0.8c0,0.2,0.1,0.5,0.1,0.8
		c0.2,1.1,0.5,2.1,0.9,3.1s0.8,1.9,1.1,2.8c0.7,1.8,1.2,3.4,1.5,4.5c0.1,0.3,0.1,0.5,0.1,0.8c0,0.1,0,0.1,0,0.2v0.1l0,0l0,0
		c0.1,0.1-0.4,0.1-0.2,0l0,0l0,0c0-0.1,0-0.2,0-0.3C139.6,42.9,139.7,42.7,139.7,42.7z M139.8,42.8c0,0,0,0.2-0.1,0.4
		c0,0.1,0,0.2,0,0.2l0,0l0,0c0.2-0.1-0.3-0.1-0.2,0l0,0l0,0v-0.1v-0.1c0-0.2-0.1-0.4-0.2-0.7c-0.2-0.5-0.6-1.1-1-1.7
		c-0.4-0.6-1-1.3-1.5-2.2c-0.5-0.8-1.1-1.7-1.5-2.8c-0.5-1-0.8-2.2-1-3.5c0-0.3-0.1-0.7,0-1c0-0.4,0-0.8,0.1-1.1l0.1-0.5l0.1-0.2
		v-0.2l0.1-0.1c0.2-0.3,0.2-0.7,0.5-1c0.4-0.7,1-1.1,1.7-1.5c0.7-0.3,1.4-0.5,2.1-0.5c1.4-0.1,2.7,0.4,3.8,1.2c1.1,0.8,1.8,2,2,3.3
		s-0.1,2.6-0.4,3.7c-0.4,1.1-0.8,2-1.3,2.9c-1,1.6-2,2.9-2.5,3.9c-0.3,0.5-0.4,0.9-0.5,1.2C139.9,42.6,139.8,42.8,139.8,42.8z"/>
</g>
<g>
	<path class="st0" d="M104.4,77.3c-2.6-10.4-10.2-6.5-11.5-10.2c-1.8-5.1,5.1-9.4,8.6-5.7c4,4.2,2.1,12.8,3.2,16.2
		C104.9,78.2,104.6,78.3,104.4,77.3z"/>
	<path class="st0" d="M104.3,77.3c0,0-0.1-0.2-0.2-0.5s-0.2-0.9-0.5-1.4c-0.3-0.6-0.7-1.3-1.2-2c-0.6-0.7-1.3-1.3-2.2-1.9
		c-0.9-0.5-1.9-1-3.1-1.3c-0.6-0.2-1.2-0.4-1.9-0.6c-0.7-0.2-1.4-0.6-2-1.2c-0.3-0.3-0.4-0.7-0.6-1.1c0-0.4-0.1-0.7-0.2-1.1
		c0-0.8,0-1.6,0.3-2.3c0.2-0.7,0.7-1.4,1.2-2s1.1-1.1,1.8-1.6c1.4-0.8,3.3-1.2,4.9-0.4c0.4,0.2,0.8,0.4,1.1,0.7
		c0.2,0.2,0.3,0.2,0.5,0.5l0.4,0.4c0.2,0.2,0.5,0.6,0.7,1c0.3,0.4,0.4,0.7,0.6,1.1c0.6,1.4,0.9,2.9,1.1,4.2c0.1,1.4,0.2,2.6,0.1,3.8
		c-0.1,1.2-0.2,2.2-0.3,3.1c-0.1,0.9-0.1,1.7,0,2.4c0.1,0.3,0.1,0.6,0.2,0.9c0,0.1,0,0.1,0,0.2v0.1c0,0-0.1,0.1-0.2,0.1
		c-0.2-0.1-0.2-0.2-0.2-0.3C104.3,77.5,104.3,77.3,104.3,77.3z M104.4,77.2c0,0,0,0.2,0.2,0.5c0,0.1,0.1,0.2,0.1,0.2h-0.1l0,0
		c0,0,0-0.1,0-0.2c-0.1-0.2-0.2-0.5-0.3-0.9c-0.1-0.7-0.3-1.5-0.5-2.4c-0.1-0.9-0.3-2-0.4-3.1c-0.2-1.1-0.2-2.3-0.4-3.6
		c-0.2-1.2-0.4-2.5-0.9-3.7c-0.4-1.1-1.2-2.4-2.3-2.9c-1-0.6-2.5-0.6-3.8-0.2c-1.3,0.5-2.5,1.5-2.9,2.9L93,64.4l-0.1,0.5
		c-0.1,0.3,0,0.7,0,1s0.2,0.7,0.3,1c0.2,0.2,0.3,0.5,0.5,0.6c0.4,0.4,1,0.5,1.7,0.6c0.6,0.1,1.3,0.2,2,0.4c1.3,0.3,2.6,0.8,3.6,1.7
		c1,0.8,1.6,1.8,2,2.6c0.2,0.5,0.4,0.8,0.5,1.2c0.1,0.4,0.2,0.7,0.4,1.1c0.2,0.6,0.3,1.1,0.4,1.5C104.4,77.1,104.4,77.2,104.4,77.2z
		"/>
</g>
<g>
	<path class="st0" d="M87.9,106.6c-3.8-7.1-8.7-2.9-10.3-5.4c-2.2-3.4,2-7.9,5.3-5.8c3.7,2.3,3.9,9,5.3,11.3
		C88.5,107.1,88.3,107.3,87.9,106.6z"/>
	<path class="st0" d="M87.9,106.6c0,0-0.1-0.1-0.2-0.4c-0.1-0.2-0.3-0.6-0.7-1c-0.3-0.4-0.7-0.8-1.3-1.2c-0.5-0.4-1.2-0.7-2-0.9
		c-0.7-0.2-1.5-0.3-2.5-0.4c-0.5,0-1-0.1-1.5-0.1c-0.5-0.1-1.2-0.2-1.8-0.6c-0.3-0.2-0.5-0.5-0.7-0.8c-0.1-0.3-0.2-0.5-0.3-0.8
		c-0.2-0.6-0.3-1.2-0.2-1.8c0.1-1.2,0.7-2.4,1.5-3.3c0.9-0.9,2.3-1.6,3.7-1.3c0.3,0.1,0.7,0.2,1,0.3c0.2,0.1,0.3,0.1,0.5,0.3
		l0.3,0.2c0.2,0.1,0.5,0.4,0.7,0.6c0.3,0.2,0.5,0.5,0.6,0.7c0.8,0.9,1.3,2,1.6,3c0.4,1,0.6,1.9,0.7,2.8s0.2,1.7,0.3,2.4
		c0.1,0.7,0.2,1.3,0.4,1.8c0.1,0.2,0.2,0.4,0.3,0.6c0,0.1,0,0.1,0.1,0.2v0.1c0,0-0.1,0.2-0.2,0.1C88,107,88,107,88,106.9
		C87.9,106.8,87.9,106.6,87.9,106.6z M88,106.5c0,0,0.1,0.1,0.2,0.3l0.1,0.1l-0.1,0.1l0,0v-0.1c-0.1-0.2-0.2-0.4-0.4-0.6
		c-0.2-0.5-0.5-1-0.8-1.7c-0.3-0.6-0.6-1.4-1-2.2c-0.3-0.8-0.6-1.7-1-2.5c-0.4-0.9-0.8-1.7-1.3-2.5c-0.5-0.7-1.3-1.5-2.1-1.7
		c-0.8-0.2-1.8-0.1-2.7,0.5c-0.8,0.6-1.6,1.5-1.6,2.6c0,0.1,0,0.3,0,0.4l0.1,0.4c0,0.3,0.1,0.5,0.2,0.7s0.3,0.5,0.4,0.7
		c0.1,0.1,0.3,0.3,0.5,0.3c0.4,0.1,0.8,0.1,1.3,0.1s1-0.1,1.5-0.1c1,0,2.1,0.1,3,0.6c0.9,0.4,1.5,1.1,2,1.7c0.2,0.3,0.4,0.6,0.6,0.8
		c0.2,0.3,0.3,0.5,0.5,0.7c0.2,0.4,0.4,0.8,0.6,1C88,106.4,88,106.5,88,106.5z"/>
</g>
<g>
	<path class="st0" d="M84.1,122.8c-3-3.5-5.2-0.5-6.4-1.7c-1.7-1.6,0.1-4.6,2.2-3.9c2.3,0.8,3.3,4.5,4.4,5.6
		C84.4,123,84.3,123.1,84.1,122.8z"/>
	<path class="st0" d="M84,122.8c0,0-0.1-0.1-0.2-0.2s-0.3-0.3-0.5-0.4s-0.5-0.3-0.9-0.4s-0.8-0.1-1.2-0.1c-0.4,0-0.8,0.1-1.3,0.1
		c-0.3,0-0.5,0.1-0.9,0.1c-0.3,0-0.8,0-1.2-0.2c-0.2-0.1-0.4-0.2-0.5-0.4c-0.1-0.1-0.2-0.2-0.3-0.4c-0.2-0.4-0.3-0.7-0.3-1.1
		c-0.1-0.7,0-1.5,0.4-2.2s1.1-1.3,2-1.4c0.2,0,0.5,0,0.7,0c0.1,0,0.2,0,0.4,0.1l0.2,0.1c0.1,0,0.3,0.1,0.5,0.3
		c0.2,0.1,0.3,0.2,0.5,0.3c0.6,0.5,1,1,1.3,1.5s0.5,1,0.7,1.5c0.1,0.5,0.2,0.9,0.3,1.3c0.1,0.4,0.2,0.7,0.3,1
		c0.1,0.1,0.1,0.2,0.2,0.3c0,0,0,0.1,0.1,0.1c0,0,0,0,0,0.1c0,0,0,0.1-0.1,0.1S84.1,122.8,84,122.8C84,122.9,84,122.8,84,122.8z
		 M84.1,122.7c0,0,0.1,0.1,0.2,0.1c0,0,0.1,0,0,0l-0.1,0.1l0,0l0,0c-0.1-0.1-0.2-0.2-0.3-0.3c-0.4-0.4-1.1-1-1.7-1.8
		c-0.3-0.4-0.6-0.8-0.9-1.2c-0.3-0.4-0.6-0.8-1-1.1c-0.3-0.3-0.8-0.6-1.1-0.6c-0.3-0.1-0.8,0-1.3,0.4c-0.4,0.3-0.7,0.9-0.6,1.5
		c0,0.3,0.2,0.6,0.3,0.7c0.1,0.1,0.2,0.2,0.3,0.3c0.1,0,0.2,0.1,0.2,0c0.3,0,0.8-0.3,1.4-0.5s1.3-0.2,1.8,0c0.6,0.2,1,0.5,1.3,0.8
		s0.5,0.6,0.7,0.8C83.9,122.5,84.1,122.7,84.1,122.7z"/>
</g>
<path class="st0" d="M153.8,205.3c0.9-1.7-0.6,22.3-10.1,21.8c-4.7-0.2,0.6,36.5,2.7,49.9c0.6,3.7-11.8,2.4-11.3,0
	c3.8-18,6.1-49.3,2.8-49.9c-10.8-2.1-10.8-22.4-10.8-22.4c7.5,12,13.7-0.5,13.7-0.5C140.5,203.1,146.8,218.3,153.8,205.3z"/>
<path class="st0" d="M149.9,274.6c1.1-0.3,2.9-3.3,3.3-4.3c7.3-19.3,10.1-17.2,37.1-32.4c33.6-18.9,25.6-77,20.2-112.6
	c-0.4-2.7-1.9-3.3-1.6-2c13.4,69.7-70.6,83.7-58.1,146.5C151.6,274.3,149.9,274.6,149.9,274.6z"/>
<path class="st0" d="M130.9,275.1c-1.1-0.3-2.9-3.3-3.3-4.3c-7.3-19.3-10.1-17.2-37.1-32.4c-33.6-18.9-25.6-77-20.2-112.6
	c0.4-2.7,1.9-3.3,1.6-2c-13.4,69.7,70.6,83.7,58.1,146.5C129.2,274.8,130.9,275.1,130.9,275.1z"/>
<path class="st1" d="M98,209.4L98,209.4L98,209.4z"/>
<path class="st1" d="M82.8,197.4L82.8,197.4L82.8,197.4z"/>
<path class="st1" d="M85.2,222.5L85.2,222.5L85.2,222.5z"/>
<path class="st1" d="M120.9,236.6L120.9,236.6L120.9,236.6z"/>
<path class="st1" d="M110.1,222.1L110.1,222.1L110.1,222.1z"/>
<path class="st1" d="M116.3,228.5L116.3,228.5L116.3,228.5z"/>
<path class="st1" d="M78.6,205.5L78.6,205.5L78.6,205.5z"/>
<polygon class="st1" points="82,217.2 82.1,217.2 82.1,217.2 "/>
<path class="st1" d="M76.9,195.5L76.9,195.5L76.9,195.5z"/>
<path class="st1" d="M81.7,197.7L81.7,197.7L81.7,197.7z"/>
<g>
	<path class="st2" d="M120.9,236.6c-1.1-3-2.7-5.7-4.6-8.1l-2.3,11L120.9,236.6z"/>
	<path class="st2" d="M76.9,195.5c0.4,3.3,1,6.7,1.7,10l3.1-7.8L76.9,195.5z"/>
	<path class="st2" d="M75.9,179c0-0.6-0.7-0.2-0.6,1.2c0.4,4.6,0.8,9.8,1.5,15.3l0,0l4.8,2.2C78.4,192.8,76.2,186.8,75.9,179z"/>
	<path class="st2" d="M78.6,205.5L78.6,205.5l8.1-1.7c-1.8-1.9-3.5-3.9-5-6.1L78.6,205.5z"/>
	<path class="st2" d="M101.8,215.8l-4.3,17.9l12.6-11.5C107.5,219.9,104.7,217.8,101.8,215.8z"/>
	<path class="st2" d="M86.6,203.8L82,217.2l0,0l11.3-7.5L89,228.9l0,0l12.7-13.1C96.6,212.1,91.2,208.4,86.6,203.8z"/>
	<path class="st2" d="M110.1,222.1l-5.4,14.5l11.6-8.2C114.5,226.2,112.4,224.1,110.1,222.1z"/>
</g>
<path class="st1" d="M159.8,236.8L159.8,236.8L159.8,236.8z"/>
<path class="st1" d="M170.6,222.4L170.6,222.4L170.6,222.4z"/>
<path class="st1" d="M164.4,228.7L164.4,228.7L164.4,228.7z"/>
<path class="st1" d="M202.1,205.8L202.1,205.8L202.1,205.8z"/>
<path class="st1" d="M199.1,198l3,7.8L199.1,198z"/>
<polygon class="st1" points="198.7,217.5 198.7,217.4 198.7,217.4 "/>
<path class="st1" d="M203.9,195.8L203.9,195.8L203.9,195.8z"/>
<path class="st3" d="M199.1,198L199.1,198L199.1,198z"/>
<path class="st4" d="M199.1,198l4.8-2.2L199.1,198z"/>
<path class="st1" d="M199.1,198L199.1,198L199.1,198z"/>
<path class="st3" d="M199.1,198L199.1,198L199.1,198z"/>
<g>
	<path class="st2" d="M166.7,239.8l-2.3-11c-1.9,2.4-3.5,5.1-4.6,8.1L166.7,239.8z"/>
	<path class="st2" d="M204.8,179.3c-0.3,7.7-2.5,13.7-5.7,18.7l4.8-2.2l0,0c0.7-5.4,1.2-10.7,1.5-15.3
		C205.5,179.1,204.8,178.6,204.8,179.3z"/>
	<path class="st2" d="M194.1,204l8.1,1.7l0,0l-3.1-7.8C197.6,200.2,195.9,202.2,194.1,204z"/>
	<path class="st2" d="M170.6,222.4l12.6,11.5l-4.3-17.9C176,218.1,173.2,220.2,170.6,222.4z"/>
	<path class="st2" d="M191.6,229.1C191.7,229.1,191.7,229.1,191.6,229.1l-4.3-19.2l11.3,7.5l0,0L194,204c-4.5,4.6-9.9,8.3-15.2,12
		L191.6,229.1z"/>
	<path class="st2" d="M170.6,222.4c-2.3,2-4.4,4-6.2,6.3l11.6,8.2L170.6,222.4z"/>
</g>
<path class="st5" d="M165.4,153.7c5.6-3,4.3-10-1.7-11.1c0,0,7.9-8.3-3.2-9.7c0,0,7.6-11.2-6-10.3c0,0,5.3-9.8-6-10.8
	c0,0,7.4-10.4-4.4-7.8l-5.8-12.8l-5.1,12.4c0,0-11.6-0.8-2.2,8.2c0,0-13.8-0.9-8.1,9.9c0,0-11.4-0.5-4.3,7.9c0,0-8.8-0.2-2.3,7.7
	c0,0-10,1.3-2.4,9.2c0,0-10.7,5.8-0.6,11.1c0,0-7.7,8.2,2.3,11.1c0,0-2.3,12.2,7.4,9.5c0,0,4.9,13.8,13.3,3.3c0,0,6.9,12.1,12-0.7
	c0,0,11.7,7.7,9.8-6c0,0,11.5-0.4,6.2-11.3C164.2,163.5,173.3,157.6,165.4,153.7z"/>
<path class="st0" d="M138.4,105.9c-3.3,14.7-22.7,41.4-20.2,56.2c3.5,20.8,35.1,22.7,40.2,3.4c5.7-21.6-16.8-47.8-19.3-61.3
	C138.6,101.7,139.3,101.9,138.4,105.9z"/>
<ellipse transform="matrix(4.657830e-02 -0.9989 0.9989 4.657830e-02 -20.2179 284.5381)" class="st5" cx="138.9" cy="152.9" rx="4.1" ry="4.1"/>
<ellipse transform="matrix(4.657830e-02 -0.9989 0.9989 4.657830e-02 -7.1373 271.515)" class="st5" cx="138.7" cy="139.5" rx="2.9" ry="2.9"/>
<ellipse transform="matrix(4.657830e-02 -0.9989 0.9989 4.657830e-02 0.8704 264.5394)" class="st5" cx="139" cy="131.8" rx="2.1" ry="2.1"/>
<ellipse transform="matrix(4.657830e-02 -0.9989 0.9989 4.657830e-02 9.9995 256.5392)" class="st5" cx="139.4" cy="123" rx="2.1" ry="2.1"/>
<ellipse transform="matrix(0.6425 -0.7663 0.7663 0.6425 -58.6632 164.9145)" class="st5" cx="147.4" cy="145.3" rx="4.8" ry="0.5"/>
<ellipse transform="matrix(0.3205 -0.9473 0.9473 0.3205 -48.6266 250.2044)" class="st5" cx="150.1" cy="159" rx="0.5" ry="4.8"/>
<ellipse class="st5" cx="139" cy="165.4" rx="0.5" ry="4.8"/>
<ellipse transform="matrix(0.7663 -0.6425 0.6425 0.7663 -62.8929 117.6975)" class="st5" cx="130.3" cy="145.3" rx="0.5" ry="4.8"/>
<ellipse transform="matrix(0.9473 -0.3205 0.3205 0.9473 -44.1437 49.4001)" class="st5" cx="128" cy="158.8" rx="4.8" ry="0.5"/>
<rect x="27.2" y="9.3" class="st1" width="239.4" height="281.7"/>
</svg>
